
<global>
amp_veltrack=0
ampeg_release=0.45
</global>

<group>
group_label=PP
lpc_hicc1=63
lpc_locc1=0

<region>
hikey=A5
hivel=127
lokey=G#5
loop_end=285661
loop_mode=loop_continuous
loop_start=58052
loop_xfade=20804
lovel=0
lpc=ZgpeQXvt/cHS3gpCZAG+wXE/VkEHEQzB3AOuQExpI8COBShA8rqOwMlA1UCnob/AkjgfQGbNqT+yVxnASEhhPeKfXUCvPE/ALDjSPiR/G0BDhN6/WFxUwFgG6EAklJjA
lpc_rms=-32.90
offset=4704
pitch_keycenter=A5
sample=Soloviolin2_harmonic_PP_A4.opus
</region>

<region>
hikey=A6
hivel=127
lokey=G#6
loop_end=220467
loop_mode=loop_continuous
loop_start=47945
loop_xfade=17182
lovel=0
lpc=uRFIQRcArMGA0aFBsaxcwWRgLEGCge/AQYmkQDrTpsAgrIpAhFYQwIhMC0C+sBnADdyaQDSwKcH+n9xARcAaQIxFqMDKeoNA/UhOwEL7UUB3bZy/o3UrQAXzC8ALyrQ/
lpc_rms=-32.10
offset=11533
pitch_keycenter=A6
sample=Soloviolin2_harmonic_PP_A6.opus
</region>

<region>
hikey=B5
hivel=127
lokey=A#5
loop_end=293100
loop_mode=loop_continuous
loop_start=53643
loop_xfade=19224
lovel=0
lpc=1xGlQZ79L8IoDD5CntECwh7nq0GJq4fBtW84QdpQ48CSbvpAr0f7wPO0jEDhE/i99PK0v9RXuj/lYvk9Zsk2wLEpx0B/6v/AnZbdQBNKCMC/x8+/VOP2PxzHoL8angzA
lpc_rms=-30.81
offset=15362
pitch_keycenter=B5
sample=Soloviolin2_harmonic_PP_B4.opus
</region>

<region>
hikey=B6
hivel=127
lokey=A#6
loop_end=267377
loop_mode=loop_continuous
loop_start=50643
loop_xfade=18149
lovel=0
lpc=fFxBQSpvn8GyGZ5BZ4p1wTdRTEGjOSDBQBfIQPKkxcD6dsRA0bdawIpvmT9/S5u+OCqtwAsWCEEQy7bArv9LQERoB8C6XMQ/uSKuP5R5bz5jLkO+KKF/v3hOKEA9th7A
lpc_rms=-33.91
offset=2682
pitch_keycenter=B6
sample=Soloviolin2_harmonic_PP_B6.opus
</region>

<region>
hikey=C#6
hivel=127
lokey=C6
loop_end=280709
loop_mode=loop_continuous
loop_start=54817
loop_xfade=19645
lovel=0
lpc=X5haQaoW3sFS9eBBUHGdwf/3b0G4TlnBSygiQePvvsDpD8BAiNzgwLWLwkA/tk7ASS78P1iEIsAOi5pAWXW/wJiOv0CM57TAY0OwQKpXtMDqArtAs3IZwTdv/EAY9inA
lpc_rms=-31.80
offset=2690
pitch_keycenter=C#6
sample=Soloviolin2_harmonic_PP_C#5.opus
</region>

<region>
hikey=C8
hivel=127
lokey=C7
loop_end=273903
loop_mode=loop_continuous
loop_start=48001
loop_xfade=17202
lovel=0
lpc=aOyFQdqS1cGpIMVBjVR8wSYiLkHpde3A1fOoQP59xMBuI7dA/DBywM+Tyz7vA/7A7wdxQZr7Z8ENDzhB4FsJwSdsAEFj6rzAcFUEQVI9AcFMEhVBKvY0wZK2CUEguVbA
lpc_rms=-32.55
offset=128
pitch_keycenter=C#7
sample=Soloviolin2_harmonic_PP_C#7.opus
</region>

<region>
hikey=D#5
hivel=127
lokey=C#5
loop_end=266231
loop_mode=loop_continuous
loop_start=48991
loop_xfade=17557
lovel=0
lpc=yaykQdOZTMKj6XVCGRo4ws5B5UEBdMnB7m20QTkVa8HezgJBTdY7wJE1Qj+LqaU/lC/SPxCIp8CUXuVAzFG3wP5AEEDgjCbAtzPJQDft8sC9GilAaPS0QCD66MA3mIZA
lpc_rms=-29.14
offset=194
pitch_keycenter=D#5
sample=Soloviolin2_harmonic_PP_D#4.opus
</region>

<region>
hikey=D#6
hivel=127
lokey=D6
loop_end=259814
loop_mode=loop_continuous
loop_start=46518
loop_xfade=16671
lovel=0
lpc=/xBmQWOM58HDhdVBFdtowe14BkFu7RTBrbL7QMRQhMCJkAtArUQLv4eva7/DghZAmCLhvv7PD8CR8o9AMOeOwMm3p0CrYabAaiKAQExuJcGqSFpBRIPFwMlNvr94Xz1A
lpc_rms=-32.53
offset=995
pitch_keycenter=D#6
sample=Soloviolin2_harmonic_PP_D#5.opus
</region>

<region>
hikey=F5
hivel=127
lokey=E5
loop_end=272800
loop_mode=loop_continuous
loop_start=55878
loop_xfade=20025
lovel=0
lpc=M7ZNQVUdBcKTzyZC9rkGwjuRsEEz0GrBVxslQa5Wr8BxN3lA0RJQwMrLK0BrvfS/WNOaPvBgYT5xZlVAyvzgwMr+B0Fy6KPAPaGMPyvK8D+Y1XjAGCmIQDDeP8ANy/8/
lpc_rms=-31.81
offset=8040
pitch_keycenter=F5
sample=Soloviolin2_harmonic_PP_F4.opus
</region>

<region>
hikey=F6
hivel=127
lokey=E6
loop_end=268956
loop_mode=loop_continuous
loop_start=58952
loop_xfade=21127
lovel=0
lpc=0eEAQa7pf8EkpYpBkzlmwW5FRkGMZSLBO2rXQBLljcALsm5AsukDwCLC8D6Wtic/RViOvlfTWD7ZBgk/3tehvzv0xj+w9bbATgsHQTky3MB+2I5AzddDwKctDkCDk+++
lpc_rms=-35.79
offset=2804
pitch_keycenter=F6
sample=Soloviolin2_harmonic_PP_F5.opus
</region>

<region>
hikey=C5
hivel=127
lokey=C4
loop_end=269548
loop_mode=loop_continuous
loop_start=55343
loop_xfade=19834
lovel=0
lpc=QiPBQTf+j8JYIsdCLS2uwuF1ZEKcXBbCO6bbQSBEn8GDcXRBHmQXwQydvb6VRetApimLwIUDg7+J4TVAsjm1wA3DHkFMHxHBho6/QOxYaMCzK84+LqhDQLCsosClCjdA
lpc_rms=-28.39
pitch_keycenter=G4
sample=Soloviolin2_harmonic_PP_G3.opus
</region>

<region>
hikey=G5
hivel=127
lokey=F#5
loop_end=271749
loop_mode=loop_continuous
loop_start=46312
loop_xfade=16597
lovel=0
lpc=yaymQfZ7U8I9rIJCEZJMwtTFEUIl6vHBa2XFQR+de8FgvipB4fqrwBthgj8lLgVAwHsPP2PHmMANFAFBJvLVwCLOmkDlIrbA9IFGQUgKa8HPJDRBm2hiwBsXmL/QBAdA
lpc_rms=-27.87
offset=508
pitch_keycenter=G5
sample=Soloviolin2_harmonic_PP_G4.opus
</region>

<region>
hikey=G6
hivel=127
lokey=F#6
loop_end=274740
loop_mode=loop_continuous
loop_start=59747
loop_xfade=21412
lovel=0
lpc=FcZAQWSy0cFkTuJBmQGZwfIzNEG1HdDAW6+HP9YuMkC4VMC/1gBfv/QRsj9cgWk/XIvuv/SIrj/uPzW9F5vkwLIEPEFReeHAC7VKvwYCn0Cda7HAYeXDQMJUh8CBPr0/
lpc_rms=-37.75
offset=18981
pitch_keycenter=G6
sample=Soloviolin2_harmonic_PP_G6.opus
</region>
</group>

<group>
group_label=MF
lpc_hicc1=127
lpc_locc1=64

<region>
hikey=A5
hivel=127
lokey=G#5
loop_end=210513
loop_mode=loop_continuous
loop_start=45780
loop_xfade=16406
lovel=0
lpc=YsWCQc+y4MEdJ9ZBdNiQwXwlmEHmnIPBH247Qamg6cCYoAJBMqPov0AVEsDHjnxAhUkDwNVpoUDhSpW/vfntv19Jh0AAoIHAN8MeQZtnF8F+wuNAZuS8wAMBFEFBb2DA
lpc_rms=-22.22
offset=209
pitch_keycenter=A5
sample=Soloviolin2_harmonic_MF_A4.opus
</region>

<region>
hikey=A6
hivel=127
lokey=G#6
loop_end=224244
loop_mode=loop_continuous
loop_start=48766
loop_xfade=17476
lovel=0
lpc=u8+xQSvh6MHq16dBHRnMwDkwPkBmJ4a/+uyKP2EIP8DXQqhAB+wmwKLeAkBcR/u/ghHsQL9+dMGznPA/a3FyQWA7h8EstylBv7qowO6apUDa15a/+YVRQN1/T8BtbV9A
lpc_rms=-19.84
offset=1885
pitch_keycenter=A6
sample=Soloviolin2_harmonic_MF_A6.opus
</region>

<region>
hikey=B5
hivel=127
lokey=A#5
loop_end=218376
loop_mode=loop_continuous
loop_start=47490
loop_xfade=17019
lovel=0
lpc=j5qGQSl8usFFB7pBQZqcwV1bkUH8kG/BRvItQShx+8Db/udAjFOSwIkeIkBjyb6/LO78P4/s1r9F3DRAyj9ZwGLKnkAuoszA6fMAQXG5AMEgoCRBDn1JwVIkV0F51TrB
lpc_rms=-21.34
offset=212
pitch_keycenter=B5
sample=Soloviolin2_harmonic_MF_B4.opus
</region>

<region>
hikey=B6
hivel=127
lokey=A#6
loop_end=221029
loop_mode=loop_continuous
loop_start=48067
loop_xfade=17226
lovel=0
lpc=ru+6QTL/+cF2I75Bf2FVwVkLT0GdlvvAwqM5QFzjhb8R/4NALZFhvMAzD8Hp+ExBfIbAwddt10E+kFPBIIKfQLUpacCtn7c/F214QCQ9+b+2CS0/UflAwAaiPUF7vQ3B
lpc_rms=-19.80
offset=1565
pitch_keycenter=B6
sample=Soloviolin2_harmonic_MF_B6.opus
</region>

<region>
hikey=C#6
hivel=127
lokey=C6
loop_end=263412
loop_mode=loop_continuous
loop_start=57284
loop_xfade=20529
lovel=0
lpc=dECQQab708EaxbBB1GFlwXE7O0FU9QvB/VfQQPQcvMDQ5wJBeU/VwN1ReUC58v6/hiY8QIis+L/52TJAtuabwE5D5EBkg7jABuzSQLrNDcFBkUlB7H+jwYnAR0FzHULA
lpc_rms=-22.09
offset=7617
pitch_keycenter=C#6
sample=Soloviolin2_harmonic_MF_C#5.opus
</region>

<region>
hikey=C8
hivel=127
lokey=C7
loop_end=225836
loop_mode=loop_continuous
loop_start=49112
loop_xfade=17601
lovel=0
lpc=DqhhQak2kcHmX2xBODT4wPUU1UDaP6jA/ZcmQOfNJMDCpJhAiRN9v/AICsDybbrA7tdEQRgQPMEeAgtBWvvnwL8lAkGoJY3ALyuqQBE+48Ab6tRA23XIwDU5T0C3xRu/
lpc_rms=-24.62
offset=13596
pitch_keycenter=C#7
sample=Soloviolin2_harmonic_MF_C#7.opus
</region>

<region>
hikey=D#5
hivel=127
lokey=C#5
loop_end=218997
loop_mode=loop_continuous
loop_start=47625
loop_xfade=17068
lovel=0
lpc=lckLQTUFusHbPO9BM7bAwZFdd0Hg4TDBGqAfQS7P/sDhsopA94m+vhu4JcBqj05AszP2vks6HsDb1y9AcetAv6ScZr41t7q/DLeRQNWHa8CYYWA+4YDEP9MdXr88xOA+
lpc_rms=-22.98
offset=301
pitch_keycenter=D#5
sample=Soloviolin2_harmonic_MF_D#4.opus
</region>

<region>
hikey=D#6
hivel=127
lokey=D6
loop_end=210040
loop_mode=loop_continuous
loop_start=45677
loop_xfade=16369
lovel=0
lpc=AcrJQZwKFsL5UNBBefkJwc4dD0DgkmnAuSVRQJI/zr8pcf8/7+uCvsUY2T7ca5s+O3rXP3QXAMCp2mhA9tlEwOqLkEBFhInAVNHdQD2dzcHlEslBH5yywG933sA8NNRA
lpc_rms=-20.58
offset=5524
pitch_keycenter=D#6
sample=Soloviolin2_harmonic_MF_D#5.opus
</region>

<region>
hikey=F5
hivel=127
lokey=E5
loop_end=217658
loop_mode=loop_continuous
loop_start=47334
loop_xfade=16963
lovel=0
lpc=T1svQYfG3cFyhApCNzTfwZ/ij0ExRznBe7QOQZSSrMAxvFFAjOjBv0QADr/61gpA1ey6vzzF0j5tkLw+vUIfv2+nBUC67ey/NT+BPyztwz6VKOu/jBqEQPxBpMBM7lFA
lpc_rms=-21.23
offset=9955
pitch_keycenter=F5
sample=Soloviolin2_harmonic_MF_F4.opus
</region>

<region>
hikey=F6
hivel=127
lokey=E6
loop_end=252231
loop_mode=loop_continuous
loop_start=54852
loop_xfade=19658
lovel=0
lpc=fYtDQcHOtsE/Ha9B5JMrwTwKfkBXiLm/VEBiP6YhE8DGaY9AsNg0wFQ6W7+dEIVA6cJOwMocQj/oWwJAmAI0wHlz+D/xeu3AEyojQRzs1sBffSU/DWSjPrYuRD/lfgW+
lpc_rms=-26.54
offset=896
pitch_keycenter=F6
sample=Soloviolin2_harmonic_MF_F5.opus
</region>

<region>
hikey=C5
hivel=127
lokey=C4
loop_end=221163
loop_mode=loop_continuous
loop_start=48096
loop_xfade=17236
lovel=0
lpc=TJNDQV3oAsK6PiRCAj8JwuX+uUE+M3rBk4ghQXdNxMA/o2ZAEnOfPqMyeMDgYHZAZcAUwMp5Bj/qGw5A+QRmwDxeT0DMkTfAQD6XQCBPnsBHypc+G8eIQHJ8j8DTj+c/
lpc_rms=-18.89
offset=263
pitch_keycenter=G4
sample=Soloviolin2_harmonic_MF_G3.opus
</region>

<region>
hikey=G5
hivel=127
lokey=F#5
loop_end=214831
loop_mode=loop_continuous
loop_start=46719
loop_xfade=16743
lovel=0
lpc=E1puQdsqA8IAthRCA+TXwdoGkkHUvDjB1v39QGoivMAzG39A4uIJv0Lrlj6avgk/CndOv7U3sz4JXH1AJyWWwClXsEA366jAP2+HQP46qD9mt27AiAeFQBtuhsDubGBA
lpc_rms=-22.13
offset=3175
pitch_keycenter=G5
sample=Soloviolin2_harmonic_MF_G4.opus
</region>

<region>
hikey=G6
hivel=127
lokey=F#6
loop_end=247998
loop_mode=loop_continuous
loop_start=53932
loop_xfade=19328
lovel=0
lpc=dj0gQRNuiME503NB9/r/wJ9OpkCZTm7AfjOdP8jIHj/Gfys/3aaLvydNoD8RBIa+D/g0Pz7xdr+wlChAPssawS0GJUEkiFTANO85wEFLYUDM7izASdNgQJj4IsDCLD4/
lpc_rms=-28.95
offset=949
pitch_keycenter=G6
sample=Soloviolin2_harmonic_MF_G6.opus
</region>
</group>